<svg width="50" height="50" viewBox="0 0 50 50" fill="none" xmlns="http://www.w3.org/2000/svg">
<g clip-path="url(#clip0_11_17)">
<path d="M0 0H50V50H0V0Z" fill="#FC5E28"/>
<path d="M22.7436 35.4348H20.0973V18.6956H20.8534C21.0802 18.6956 21.2314 18.5435 21.2314 18.3152V16.4131H34.8409V18.3152C34.8409 18.5435 34.992 18.6956 35.2189 18.6956H36.353V20.7881L31.5897 24.4783C31.4763 24.5924 31.4006 24.7446 31.4763 24.8967C31.5141 25.0489 31.6653 25.163 31.8166 25.163H41.6455C41.7967 25.163 41.948 25.0489 41.9858 24.8967C42.0236 24.7446 41.9858 24.5544 41.8724 24.4783L37.1091 20.7881V18.6956H38.2432C38.4701 18.6956 38.6212 18.5435 38.6212 18.3152V16.4131H38.9993C39.2261 16.4131 39.3773 16.2608 39.3773 16.0326V14.0924C39.3773 14.0544 39.3773 14.0163 39.3395 14.0163C39.3395 14.0163 39.3395 13.9783 39.3017 13.9783C39.3017 13.9402 39.2639 13.9402 39.2639 13.9021L39.2261 13.8642C39.1883 13.8642 39.1883 13.8261 39.1505 13.8261L16.8462 5.07608C16.8462 5.07608 16.8462 5.07608 16.8083 5.07608C16.7705 5.07608 16.7705 5.07608 16.7327 5.07608C16.6949 5 16.6949 5 16.6571 5C16.6571 5 16.6571 5 16.6193 5C16.4681 5 16.3169 5.11413 16.2413 5.26631L16.2034 5.34239L12.234 10.4783L9.20973 14.2826L9.17193 14.3207C9.17193 14.3207 9.17193 14.3587 9.13412 14.3587C9.13412 14.4348 9.13412 14.4728 9.13412 14.5109V25.5435H8.37804C8.15122 25.5435 8 25.6957 8 25.9239V31.25C8 31.4783 8.15122 31.6304 8.37804 31.6304H10.6463C10.8731 31.6304 11.0243 31.4783 11.0243 31.25V25.9239C11.0243 25.6957 10.8731 25.5435 10.6463 25.5435H9.8902V15.6141L12.234 18.5815C12.2719 18.6196 12.3097 18.6196 12.3097 18.6576C12.3097 18.6576 12.3475 18.6576 12.3475 18.6956C12.4231 18.6956 12.4987 18.6956 12.5365 18.6956H13.2926V35.4348H10.6463C10.4195 35.4348 10.2682 35.587 10.2682 35.8153V39.6196C10.2682 39.8479 10.4195 40 10.6463 40H22.7436C22.9704 40 23.1216 39.8479 23.1216 39.6196V35.8153C23.1216 35.587 22.9704 35.4348 22.7436 35.4348ZM32.9128 24.4021L36.731 21.4729L40.5493 24.4021H32.9128ZM10.2682 30.8695H8.75608V26.3043H10.2682V30.8695ZM19.3412 29.0815L17.2242 27.0652L19.3412 25.0489V29.0815ZM16.6949 26.5326L14.1999 24.1358L16.6949 21.7392L19.19 24.1358L16.6949 26.5326ZM14.0486 25.0489L16.1657 27.0652L14.0486 29.0815V25.0489ZM16.6949 27.5978L19.19 29.9946L16.6949 32.3533L14.1999 29.9565L16.6949 27.5978ZM19.3412 30.8695V34.9021L17.2242 32.8859L19.3412 30.8695ZM17.2242 21.2446L19.3412 19.2283V23.2609L17.2242 21.2446ZM16.6949 20.712L14.6157 18.6956H18.7742L16.6949 20.712ZM16.1657 21.2446L14.0486 23.2609V19.1902L16.1657 21.2446ZM16.1657 32.8859L14.0486 34.9402V30.8695L16.1657 32.8859ZM16.6949 33.4185L18.7742 35.4348H14.6157L16.6949 33.4185ZM20.8534 10.3261H18.4717L17.2242 5.98913L36.0128 13.3696L21.2314 11.5054V10.7065C21.2314 10.4783 21.0802 10.3261 20.8534 10.3261ZM17.7156 10.3261H15.334L16.6193 6.63587L17.7156 10.3261ZM15.1828 11.0869H20.4753V15.6522H15.1828V11.0869ZM37.8652 17.9347H35.5969V16.4131H37.8652V17.9347ZM38.6212 15.6522H21.2314V12.2663L38.6212 14.4348V15.6522ZM14.5401 10.3261H13.3304L15.523 7.54891L14.5401 10.3261ZM12.1584 11.8098V17.25L10.0036 14.5109L12.1584 11.8098ZM12.9145 11.0869H14.4267V16.0326C14.4267 16.2608 14.5779 16.4131 14.8047 16.4131H20.4753V17.9347H12.9145V11.0869ZM22.3655 39.2391H11.0243V36.1957H22.3655V39.2391Z" fill="white"/>
<path d="M42.625 37.7059H42.25V27.3824C42.25 27.153 42.1 27 41.875 27H32.1251C31.9 27 31.75 27.153 31.75 27.3824V37.7059H31.3751C31.1501 37.7059 31 37.8588 31 38.0882V39.6177C31 39.8471 31.1501 40 31.3751 40H42.625C42.85 40 43 39.8471 43 39.6177V38.0882C43 37.8588 42.85 37.7059 42.625 37.7059ZM32.5 27.7647H41.5001V37.7059H39.25V33.5C39.25 33.2706 39.1 33.1177 38.875 33.1177H35.125C34.9 33.1177 34.75 33.2706 34.75 33.5V37.7059H32.5V27.7647ZM38.5 37.7059H35.5V33.8824H38.5V37.7059ZM42.25 39.2353H31.75V38.4706H42.25V39.2353Z" fill="white"/>
<path d="M35.625 32C35.85 32 36 31.8499 36 31.625V29.375C36 29.15 35.85 29 35.625 29H33.3751C33.1501 29 33 29.15 33 29.375V31.625C33 31.8499 33.1501 32 33.3751 32H35.625ZM33.75 29.75H35.2501V31.25H33.75V29.75Z" fill="white"/>
<path d="M37.375 32H39.625C39.8499 32 40 31.8499 40 31.625V29.375C40 29.15 39.8499 29 39.625 29H37.375C37.15 29 37 29.15 37 29.375V31.625C37 31.8499 37.15 32 37.375 32ZM37.75 29.75H39.25V31.25H37.75V29.75Z" fill="white"/>
</g>
<defs>
<clipPath id="clip0_11_17">
<rect width="50" height="50" rx="25" fill="white"/>
</clipPath>
</defs>
</svg>
