<svg width="32" height="32" viewBox="0 0 32 32" fill="none" xmlns="http://www.w3.org/2000/svg">
<path d="M0 16C0 7.16344 7.16344 0 16 0C24.8366 0 32 7.16344 32 16C32 24.8366 24.8366 32 16 32C7.16344 32 0 24.8366 0 16Z" fill="white"/>
<path d="M4.36938 22.625V19.4664H5.92578V11.2084H4.36938V8.0498H12.2429V11.2084H10.6865V19.4664H12.2429V22.625H4.36938Z" fill="black"/>
<path d="M13.3232 22.625V19.4664H14.7881V11.2084H13.3232V8.0498H21.2242C23.1774 8.0498 24.6514 8.3855 25.6462 9.05688C26.6472 9.72827 27.1477 10.7292 27.1477 12.0598C27.1477 12.7617 26.9738 13.3843 26.6259 13.9275C26.2841 14.4707 25.7866 14.8857 25.1335 15.1726C25.8354 15.4534 26.3878 15.8776 26.7906 16.4452C27.1935 17.0067 27.3949 17.6812 27.3949 18.4685C27.3949 19.8052 26.9066 20.8336 25.9301 21.5538C24.9535 22.2679 23.5558 22.625 21.7369 22.625H13.3232ZM20.6658 11.1168H19.439V13.9183H20.6658C21.801 13.9183 22.3687 13.4514 22.3687 12.5176C22.3687 11.5837 21.801 11.1168 20.6658 11.1168ZM19.439 19.558H20.858C22.0299 19.558 22.6158 19.0422 22.6158 18.0107C22.6158 16.9792 22.0299 16.4635 20.858 16.4635H19.439V19.558Z" fill="#EAB308"/>
</svg>
