<svg width="150" height="150" viewBox="0 0 150 150" fill="none" xmlns="http://www.w3.org/2000/svg">
<rect width="150" height="150" rx="75" fill="white"/>
<path d="M123.971 45.3103L95.2499 28.7266C95.1932 28.6939 95.1308 28.6639 95.067 28.6391C93.2594 27.4966 90.3912 26.7305 87.9088 26.7305C85.2877 26.7305 83.1012 27.2442 81.2249 28.3003L58.7496 41.276L58.6482 41.2163L57.9121 41.7094C56.4279 42.7054 54.3 43.2767 52.074 43.2767C48.0078 43.2767 44.4395 41.3042 44.4395 39.0557C44.4395 37.8753 45.4205 36.7212 47.1316 35.8886L75.2677 19.6477C75.5944 19.4603 75.8288 19.155 75.9279 18.7892C76.0267 18.4226 75.9767 18.0392 75.7867 17.7098C75.5347 17.2723 75.0626 17 74.556 17C74.3088 17 74.0636 17.0661 73.8473 17.1908L45.8303 33.3674C43.1536 34.6796 41.6029 36.7588 41.6029 39.0557C41.6029 41.0774 42.6673 42.8343 44.6829 44.1367L66.1148 56.5119L66.1914 56.5525C67.901 57.384 68.8823 58.5381 68.8823 59.7185C68.8823 61.9673 65.3141 63.9409 61.2486 63.9409C59.0234 63.9409 56.8962 63.3697 55.4116 62.3741C55.2922 62.2941 55.1592 62.2355 55.0158 62.1968L27.1249 46.0938C26.8489 45.9289 26.5635 45.844 26.2814 45.844C25.5464 45.844 25 46.4438 25 46.9805V102.571C25 103.255 25.1863 103.823 26.0974 104.362C26.2799 104.469 59.2889 123.546 60.478 124.21C60.8246 124.404 61.1487 124.502 61.4409 124.502C61.8465 124.502 62.1924 124.314 62.4121 123.974C62.5793 123.715 62.6671 123.376 62.6671 122.994V70.0108C62.6671 68.2002 62.7956 68.1303 64.3628 67.2733L90.8475 51.9815C90.9658 51.9413 91.0796 51.8853 91.187 51.8136C92.6743 50.8071 94.8101 50.231 97.0488 50.231C99.0273 50.231 100.926 50.6805 102.395 51.4966L102.618 51.6262C103.948 52.4243 104.683 53.4285 104.683 54.4516C104.683 55.3908 104.041 56.3376 102.873 57.1162C102.843 57.1331 102.81 57.159 102.775 57.1872L102.733 57.2119C102.629 57.2773 102.522 57.3366 102.384 57.4136L74.2157 73.6755C73.6471 74.0436 73.1393 74.5149 73.1393 75.5522V130.128C73.1393 131.509 73.8976 131.999 74.6086 131.999C74.9334 131.999 75.2812 131.902 75.6436 131.712L110.79 111.42C111.358 111.235 111.769 110.702 111.769 110.072V54.7062C111.769 53.9423 111.458 53.4417 110.729 53.0327L104.361 49.357C104.075 49.1681 103.742 48.9755 103.396 48.7997L82.5266 36.7509C82.3729 36.666 82.2655 36.6063 82.1397 36.527C82.1191 36.5105 82.0748 36.4771 82.0252 36.4452C80.8673 35.6719 80.2244 34.7255 80.2244 33.7877C80.2244 32.7658 80.9589 31.7623 82.2914 30.9604L82.5247 30.8256C83.9875 30.0151 85.8845 29.5663 87.8584 29.5663C90.0968 29.5663 92.233 30.1425 93.7176 31.1478C93.8152 31.2139 93.9249 31.2677 94.047 31.3082C95.2529 32.0053 120.149 46.3848 121.229 47.0034C122.239 47.581 122.239 47.581 122.239 48.7422V102.455C122.239 103.236 122.876 103.872 123.659 103.872C124.442 103.872 125.076 103.236 125.076 102.455V47.0961C125.076 46.3266 124.726 45.7591 123.971 45.3103Z" fill="#231F20"/>
<path d="M123.971 45.3103L95.2499 28.7272C95.1932 28.6945 95.1308 28.6642 95.067 28.6391C93.2594 27.4966 90.3912 26.7311 87.9087 26.7311C85.2959 26.7311 83.1135 27.2419 81.2414 28.2927L81.2346 28.3002C81.0517 28.4038 80.8549 28.5139 80.6495 28.6329L80.6303 28.6438C79.1525 29.5046 77.2596 30.8781 77.2596 34.2735C77.2596 36.8848 77.3325 51.6621 77.3731 59.7615L90.8475 51.9815C90.9658 51.9413 91.0796 51.8849 91.187 51.8136C92.6743 50.8067 94.8101 50.2316 97.0488 50.2316C99.0273 50.2316 100.926 50.6811 102.395 51.4972L102.618 51.6262C103.948 52.4243 104.683 53.4291 104.683 54.4522C104.683 55.3911 104.041 56.3373 102.873 57.1162C102.843 57.1327 102.81 57.159 102.775 57.1872L102.733 57.2129C102.629 57.2775 102.522 57.3374 102.384 57.4136L74.2157 73.6755C73.6471 74.0432 73.1393 74.5153 73.1393 75.5522L73.1393 130.129C73.1393 131.508 73.8976 132 74.6085 132C74.9334 132 75.2812 131.902 75.6436 131.714L110.79 111.422C111.358 111.235 111.769 110.701 111.769 110.073V54.7068C111.769 53.9422 111.458 53.4419 110.729 53.0333L104.361 49.357C104.075 49.1681 103.742 48.9757 103.396 48.8003L82.5266 36.7509C82.3729 36.6656 82.2655 36.6067 82.1397 36.527C82.1191 36.5113 82.0747 36.4773 82.0252 36.4458C80.8673 35.6721 80.2244 34.7251 80.2244 33.7877C80.2244 32.7658 80.9589 31.7619 82.2914 30.9604L82.5247 30.8262C83.9875 30.0158 85.8845 29.5663 87.8584 29.5663C90.0968 29.5663 92.233 30.1425 93.7176 31.1478C93.8152 31.2136 93.9249 31.268 94.047 31.3082C95.2529 32.0056 120.149 46.3844 121.229 47.0034C122.239 47.5806 122.239 47.581 122.239 48.7422V102.455C122.239 103.236 122.876 103.872 123.659 103.872C124.442 103.872 125.076 103.236 125.076 102.455L125.076 47.0968C125.076 46.3272 124.726 45.7595 123.971 45.3103Z" fill="black"/>
<path d="M123.971 45.3103L95.2499 28.7272C95.1932 28.6945 95.1308 28.6642 95.067 28.6391C93.2594 27.4966 90.3912 26.7311 87.9087 26.7311C85.2959 26.7311 83.1135 27.2419 81.2414 28.2927L81.2346 28.3002C81.0517 28.4038 80.8549 28.5139 80.6495 28.6329L80.6303 28.6438C79.1525 29.5046 77.2596 30.8781 77.2596 34.2735C77.2596 36.8848 77.3325 51.6621 77.3731 59.7615L90.8475 51.9815C90.9658 51.9413 91.0796 51.8849 91.187 51.8136C92.6743 50.8067 94.8101 50.2316 97.0488 50.2316C99.0273 50.2316 100.926 50.6811 102.395 51.4972L102.618 51.6262C103.948 52.4243 104.683 53.4291 104.683 54.4522C104.683 55.3911 104.041 56.3373 102.873 57.1162C102.843 57.1327 102.81 57.159 102.775 57.1872L102.733 57.2129C102.629 57.2775 102.522 57.3374 102.384 57.4136L74.2157 73.6755C73.6471 74.0432 73.1393 74.5153 73.1393 75.5522L73.1393 130.129C73.1393 131.508 73.8976 132 74.6085 132C74.9334 132 75.2812 131.902 75.6436 131.714L110.79 111.422C111.358 111.235 111.769 110.701 111.769 110.073V54.7068C111.769 53.9422 111.458 53.4419 110.729 53.0333L104.361 49.357C104.075 49.1681 103.742 48.9757 103.396 48.8003L82.5266 36.7509C82.3729 36.6656 82.2655 36.6067 82.1397 36.527C82.1191 36.5113 82.0747 36.4773 82.0252 36.4458C80.8673 35.6721 80.2244 34.7251 80.2244 33.7877C80.2244 32.7658 80.9589 31.7619 82.2914 30.9604L82.5247 30.8262C83.9875 30.0158 85.8845 29.5663 87.8584 29.5663C90.0968 29.5663 92.233 30.1425 93.7176 31.1478C93.8152 31.2136 93.9249 31.268 94.047 31.3082C95.2529 32.0056 120.149 46.3844 121.229 47.0034C122.239 47.5806 122.239 47.581 122.239 48.7422V102.455C122.239 103.236 122.876 103.872 123.659 103.872C124.442 103.872 125.076 103.236 125.076 102.455L125.076 47.0968C125.076 46.3272 124.726 45.7595 123.971 45.3103Z" fill="url(#paint0_linear_206_2)"/>
<defs>
<linearGradient id="paint0_linear_206_2" x1="122.576" y1="143.27" x2="72.6447" y2="27.1423" gradientUnits="userSpaceOnUse">
<stop stop-color="#22B8CF"/>
<stop offset="0.444" stop-color="#008080"/>
<stop offset="1" stop-color="#22B8CF"/>
</linearGradient>
</defs>
</svg>
