<svg width="100" height="100" viewBox="0 0 100 100" fill="none" xmlns="http://www.w3.org/2000/svg">
<path d="M0 50C0 22.3858 22.3858 0 50 0V0C77.6142 0 100 22.3858 100 50V50C100 77.6142 77.6142 100 50 100V100C22.3858 100 0 77.6142 0 50V50Z" fill="white"/>
<path d="M52.5 30C52.5 23.0964 58.0964 17.5 65 17.5C71.9036 17.5 77.5 23.0964 77.5 30C77.5 36.9036 71.9036 42.5 65 42.5C58.0964 42.5 52.5 36.9036 52.5 30Z" fill="#1492E6"/>
<path d="M20 40C20 35.8579 23.3579 32.5 27.5 32.5C31.6421 32.5 35 35.8579 35 40C35 44.1421 31.6421 47.5 27.5 47.5C23.3579 47.5 20 44.1421 20 40Z" fill="#FF4500"/>
<path d="M37.5 65C37.5 55.335 45.335 47.5 55 47.5C64.665 47.5 72.5 55.335 72.5 65C72.5 74.665 64.665 82.5 55 82.5C45.335 82.5 37.5 74.665 37.5 65Z" fill="#00FF00"/>
</svg>
