<svg width="32" height="32" viewBox="0 0 32 32" fill="none" xmlns="http://www.w3.org/2000/svg">
<path d="M0 16C0 7.16344 7.16344 0 16 0C24.8366 0 32 7.16344 32 16C32 24.8366 24.8366 32 16 32C7.16344 32 0 24.8366 0 16Z" fill="white"/>
<path d="M25 12.491C25 14.8984 23.6665 17.1079 21.5398 18.2314L16.2254 21.0403C14.9451 21.7185 14.1234 22.5311 13.606 23.3818C13.0886 24.2326 12.878 25.1302 12.8749 25.9992H8V6.0008H18.5095C19.5164 6.0008 20.4669 6.22978 21.3141 6.63447C21.5334 6.74101 21.7472 6.85709 21.9538 6.98907C23.7825 8.13794 24.9968 10.1717 25 12.491Z" fill="url(#paint0_linear_2035_6)"/>
<path d="M22.0047 11.3516C22.0015 11.3612 21.9983 11.3739 21.9951 11.3802C21.992 11.3866 21.992 11.393 21.992 11.3961C21.4523 12.9871 20.3199 14.3467 18.7892 15.156L13.3215 18.0437C12.0038 18.7402 11.1598 19.5782 10.6266 20.4512C10.0965 21.3266 9.88032 22.2497 9.87715 23.1441V26H8.0008V6.00159H18.5103C18.8146 6.00159 19.1158 6.02385 19.4075 6.0644C19.4202 6.06758 19.4329 6.06758 19.4449 6.07076C19.5768 6.08985 19.7024 6.11131 19.8247 6.13993C23.0156 6.88412 22.1525 10.8762 22.0055 11.3532L22.0047 11.3516Z" fill="#EAB308"/>
<path d="M16.2882 12.6651C16.2532 12.6881 16.2183 12.7001 16.1833 12.7239L10.8531 15.5424C9.11103 16.5132 8.0008 18.2902 8.0008 19.7992V6H14.6399C18.2051 6.03498 19.4091 10.9692 16.2882 12.6651Z" fill="url(#paint1_linear_2035_6)"/>
<defs>
<linearGradient id="paint0_linear_2035_6" x1="6.27068" y1="12.8988" x2="20.0608" y2="12.8988" gradientUnits="userSpaceOnUse">
<stop/>
<stop offset="0.98"/>
</linearGradient>
<linearGradient id="paint1_linear_2035_6" x1="6.27068" y1="12.8988" x2="20.0608" y2="12.8988" gradientUnits="userSpaceOnUse">
<stop stop-color="#EAB308"/>
<stop offset="0.98" stop-color="#FFD18B"/>
</linearGradient>
</defs>
</svg>
