<svg width="32" height="32" viewBox="0 0 32 32" fill="none" xmlns="http://www.w3.org/2000/svg">
<path d="M0 16C0 7.16344 7.16344 0 16 0C24.8366 0 32 7.16344 32 16C32 24.8366 24.8366 32 16 32C7.16344 32 0 24.8366 0 16Z" fill="black"/>
<path d="M25.0403 24.1458C23.613 24.1841 22.318 23.6802 21.2549 22.7388C20.2418 23.3974 19.1238 23.8224 17.9444 24.0251C17.4215 24.8472 16.9835 25.6825 16.6393 26.5726L16.4918 27L16.2782 26.3971C15.9379 25.5738 15.5297 24.7871 15.0404 24.0271C11.4278 23.4351 8.55061 20.6422 7.89835 17.0643L7.48894 16.7666C6.88228 16.3939 6.27233 16.0555 5.61888 15.7672L5 15.5383C5.3668 15.4116 5.67997 15.2867 6.01071 15.1274C6.66148 14.804 7.28543 14.4594 7.88941 14.0273C8.52707 10.4406 11.4075 7.61085 15.0568 7.02058C15.4918 6.36374 15.8458 5.68069 16.1724 4.97171L16.538 4L16.7427 4.59587C17.1026 5.4424 17.5144 6.25564 18.0323 7.0409C21.5835 7.67182 24.4086 10.432 25.0596 13.966L25.5677 14.3377C26.1201 14.672 26.6711 14.9804 27.2601 15.249L28 15.5362L27.3692 15.7763C26.7435 16.054 26.155 16.3736 25.5757 16.735L25.0564 17.1109C24.7375 18.7901 23.9366 20.3164 22.714 21.5571L23.6911 22.5815C24.1306 22.9679 24.6398 23.2551 25.1755 23.4931C25.7113 23.7311 26.2253 23.8177 26.7876 23.9918C26.6848 24.0651 26.5447 24.1061 26.4109 24.1096L25.0403 24.1458ZM15.0881 10.2721V8.89036C14.0204 9.11628 13.0258 9.56782 12.1611 10.2706L15.0881 10.2721ZM19.1753 17.1751L20.0102 18.2693L21.5123 20.1232C22.5629 18.9957 23.1985 17.5662 23.3123 16.0467C22.9181 15.8455 22.5427 15.68 22.1076 15.5395C22.526 15.3907 22.9366 15.232 23.3138 15.0175C23.0957 12.0688 20.9509 9.61996 18.0779 8.9369L18.0785 10.2877L18.5392 10.3236C19.2582 10.3799 19.9334 10.5896 20.5433 10.9596C21.6678 11.642 22.2656 12.8906 22.074 14.1837C21.9238 15.1966 21.335 16.0646 20.4521 16.5922C20.0958 16.8051 19.751 16.9745 19.3386 17.0593C19.2775 17.072 19.2069 17.1262 19.1753 17.1751ZM13.083 17.0222L13.0845 15.7654C13.1194 14.6597 13.1247 13.5775 13.0616 12.4729C13.0455 12.1919 13.0398 11.9145 12.9525 11.6535C12.8137 11.2379 12.1325 10.8759 11.6534 10.721C10.4871 11.8632 9.77825 13.3666 9.64684 15.0022C10.0396 15.2087 10.4397 15.3795 10.8947 15.5356C10.4552 15.687 10.0479 15.8593 9.65012 16.0697C9.82473 18.2811 11.0956 20.2502 13.0109 21.3659C13.1063 20.8528 13.1003 20.3644 13.0976 19.8546L13.083 17.0222ZM16.0931 16.4508C16.1164 16.4311 16.19 16.4169 16.2254 16.4175C17.0913 16.4328 17.673 16.4081 18.4608 15.976C19.0132 15.6049 19.4369 15.004 19.5919 14.3613C19.8392 13.3351 19.4322 12.2503 18.4429 11.8023C17.5728 11.4061 16.56 11.4411 15.5913 11.5039L15.5824 19.0334C15.5815 19.8658 15.5741 20.6578 15.6268 21.4808C15.6465 21.7886 15.7353 22.0581 15.9656 22.2775C17.3526 22.38 18.729 22.0722 19.9378 21.3756L19.3589 20.6722C18.3997 19.4917 17.4104 18.3574 16.3595 17.2567C16.257 17.1939 16.1563 17.1336 16.0833 17.0558C15.926 16.8879 16.0535 16.4847 16.0931 16.4508Z" fill="#00FF90"/>
</svg>
