<svg width="192" height="192" viewBox="0 0 192 192" fill="none" xmlns="http://www.w3.org/2000/svg">
<rect width="192" height="192" rx="96" fill="url(#paint0_linear_135_2)"/>
<path d="M171 96C171 137.421 137.421 171 96 171V153.459C127.734 153.459 153.459 127.734 153.459 96.0006C153.459 64.2663 127.734 38.5413 96 38.5413C64.2662 38.5413 38.5406 64.2662 38.5406 96H21C21 54.5787 54.5787 21 96 21C137.421 21 171 54.5787 171 96ZM148.846 96C148.846 66.8138 125.186 43.1537 96 43.1537V60.6369C115.531 60.6369 131.363 76.4694 131.363 96C131.363 115.531 115.531 131.363 96 131.363C76.4694 131.363 60.6369 115.53 60.6369 96H43.1537C43.1537 125.186 66.8138 148.846 96 148.846C125.186 148.846 148.846 125.186 148.846 96ZM96 82.7619V65.0544C78.8525 65.0544 64.9519 78.9087 64.9519 96C64.9519 113.091 78.8525 126.946 96 126.946C113.147 126.946 127.048 113.091 127.048 96H109.282C109.282 103.311 103.336 109.239 96 109.239C88.6644 109.239 82.7175 103.311 82.7175 96C82.7175 88.6888 88.6644 82.7619 96 82.7619Z" fill="white"/>
<defs>
<linearGradient id="paint0_linear_135_2" x1="192" y1="0" x2="0" y2="192" gradientUnits="userSpaceOnUse">
<stop stop-color="#2AB9C8"/>
<stop offset="0.489583" stop-color="#1F96DB"/>
<stop offset="1" stop-color="#2AB9C8"/>
</linearGradient>
</defs>
</svg>
