<svg width="32" height="32" viewBox="0 0 32 32" fill="none" xmlns="http://www.w3.org/2000/svg">
<path d="M0 16C0 7.16344 7.16344 0 16 0C24.8366 0 32 7.16344 32 16C32 24.8366 24.8366 32 16 32C7.16344 32 0 24.8366 0 16Z" fill="white"/>
<path d="M20.26 5.11458C20.2835 5.08188 20.3213 5.0625 20.3616 5.0625H24.3646C24.4658 5.0625 24.525 5.17644 24.4669 5.25928L17.048 15.8369C17.018 15.8797 17.0178 15.9366 17.0475 15.9797L24.4698 26.7415C24.527 26.8245 24.4676 26.9375 24.3669 26.9375H20.3622C20.3216 26.9375 20.2835 26.9178 20.2601 26.8846L12.5587 15.9808C12.5279 15.9373 12.5282 15.8791 12.5593 15.8358L20.26 5.11458Z" fill="#EAB308"/>
<path d="M7.52143 8.84613C7.46071 8.76358 7.51965 8.64706 7.62213 8.64706H11.8897C11.932 8.64706 11.9713 8.6684 11.9944 8.70379L13.4718 10.9698C13.4984 11.0106 13.4989 11.0632 13.473 11.1045L11.5968 14.0979C11.55 14.1726 11.4425 14.1766 11.3902 14.1056L7.52143 8.84613Z" fill="black"/>
<path d="M11.3949 17.5204C11.4459 17.4511 11.55 17.4529 11.5987 17.5238L13.4707 20.2545C13.498 20.2944 13.4999 20.3465 13.4755 20.3883L11.9936 22.9234C11.9712 22.9617 11.9301 22.9853 11.8857 22.9853H7.62213C7.51965 22.9853 7.46071 22.8688 7.52143 22.7862L11.3949 17.5204Z" fill="black"/>
</svg>
