<svg width="140" height="140" viewBox="0 0 140 140" fill="none" xmlns="http://www.w3.org/2000/svg">
<path d="M0 70C0 31.3401 31.3401 0 70 0C108.66 0 140 31.3401 140 70C140 108.66 108.66 140 70 140C31.3401 140 0 108.66 0 70Z" fill="url(#paint0_linear_32_7)"/>
<path d="M66.2665 30.0325C64.7945 30.2668 63.6798 30.6925 62.56 31.4487C61.8879 31.9062 60.8852 32.9124 60.4373 33.5937C59.5572 34.9193 59.1466 36.1968 59.0825 37.7667C58.9973 40.0717 59.8238 42.1529 61.4719 43.7816C64.0052 46.2835 67.9626 46.8797 71.1734 45.2404C73.2586 44.176 74.7785 42.3023 75.3598 40.0823C75.4292 39.8111 75.5145 39.3742 75.552 39.1192C75.6372 38.4486 75.5839 37.0217 75.4453 36.3986C74.7252 33.1462 72.1066 30.6662 68.8 30.1018C68.3305 30.0218 67.9626 29.9956 67.2906 30.0006C66.7999 30.0056 66.3413 30.0218 66.2665 30.0325Z" fill="white"/>
<path d="M89.0666 33.2637C87.9998 33.4712 87.1572 34.1099 86.6932 35.0736C86.4158 35.643 86.3411 36.0211 86.2719 37.2611C86.1012 40.1304 85.6373 42.4191 84.848 44.3035C84.0532 46.1985 82.7839 47.6144 81.3546 48.1999L80.9759 48.3596L80.5918 48.0456C79.8132 47.4072 78.9491 46.9328 77.9464 46.5978C76.7784 46.2091 77.3013 46.2253 67.1094 46.241L57.9732 46.2572L57.5467 46.3797C55.9732 46.821 54.624 47.9924 53.8132 49.6105C53.36 50.526 53.0987 51.4684 53.0132 52.485L52.9813 52.9107L53.584 53.0758C55.7333 53.6774 57.8718 54.9388 59.5199 56.5838C61.3494 58.3987 62.6399 60.6985 63.1786 63.0937L63.3014 63.6367H74.7251L74.8479 63.0883C75.4238 60.4961 76.9119 57.9463 78.8958 56.1524C79.4187 55.6788 79.4613 55.6521 79.6851 55.6521C79.8186 55.6521 80.1546 55.6256 80.4425 55.599C82.8533 55.3382 85.0932 54.4332 86.9811 52.9481C87.5946 52.4743 88.8213 51.202 89.3225 50.5368C91.1839 48.0456 92.389 44.841 92.9545 40.881C93.2531 38.7998 93.3759 36.633 93.2319 35.9674C92.965 34.7061 91.9518 33.6468 90.7199 33.3274C90.2665 33.2049 89.5093 33.1787 89.0666 33.2637ZM48.6187 56.6155C46.752 56.8126 44.8799 57.5896 43.4401 58.7608C39.3812 62.0717 38.7414 67.9323 42 72.0203C42.3307 72.4303 43.264 73.3353 43.6907 73.6599C44.7253 74.4478 45.9254 75.0171 47.2853 75.3687L47.7865 75.4964L43.4133 75.5069C38.7039 75.5122 38.6452 75.5122 37.8025 75.7945C36.8586 76.1084 36.1173 76.5874 35.2746 77.4233C34.0747 78.6157 33.2907 80.0847 32.8694 81.9211L32.752 82.4536L32.7148 96.373H66.3198V90.3155C66.3198 84.2899 66.2932 83.039 66.1279 81.9211C65.6586 78.6423 64.1813 76.5396 61.8398 75.805C60.9331 75.5176 60.7466 75.5069 55.9732 75.5017H51.5733L52.1601 75.3472C55.2265 74.5594 57.696 72.3717 58.8319 69.4388C59.2374 68.3849 59.4079 67.4 59.4079 66.1117C59.4079 65.1005 59.3545 64.6374 59.1358 63.7697C58.5598 61.4648 56.9866 59.3303 54.9067 58.0423C53.0561 56.8978 50.816 56.3868 48.6187 56.6155ZM86.9653 56.6155C82.6451 57.0999 79.2587 60.1606 78.416 64.3393C78.3145 64.8556 78.2933 65.1059 78.2933 66.1117C78.2933 67.1232 78.3094 67.3627 78.416 67.8844C79.1571 71.5521 81.8933 74.4104 85.5467 75.3525L86.1331 75.5017L81.7813 75.5069C78.1279 75.5069 77.3546 75.5176 76.9599 75.5867C75.7919 75.7891 74.7999 76.3159 73.8452 77.2317C72.7413 78.2961 71.968 79.6377 71.5467 81.2292C71.2213 82.4428 71.2267 82.2458 71.2267 89.6236V96.373H104.56V90.2356C104.56 82.9272 104.533 82.331 104.139 80.697C103.472 77.9609 101.952 76.2627 99.7116 75.7412C98.8425 75.5388 98.1492 75.5069 93.9732 75.5017L89.9199 75.4964L90.3999 75.3738C94.5331 74.3145 97.4347 70.9185 97.7277 66.7985C97.9253 64.0038 96.9546 61.417 94.9595 59.4314C93.5037 57.9729 91.7492 57.0682 89.6798 56.7115C88.9653 56.5889 87.6265 56.5411 86.9653 56.6155ZM30 110H110V101.803H30V110Z" fill="white"/>
<defs>
<linearGradient id="paint0_linear_32_7" x1="104.245" y1="130.455" x2="47.5267" y2="-9.16724" gradientUnits="userSpaceOnUse">
<stop stop-color="#7000FF"/>
<stop offset="1"/>
</linearGradient>
</defs>
</svg>
