<svg width="32" height="32" viewBox="0 0 32 32" fill="none" xmlns="http://www.w3.org/2000/svg">
<path d="M0 16C0 7.16344 7.16344 0 16 0C24.8366 0 32 7.16344 32 16C32 24.8366 24.8366 32 16 32C7.16344 32 0 24.8366 0 16Z" fill="#008080"/>
<path d="M8.63635 8.39517C6.27212 9.77128 4.54915 12.034 3.84648 14.6857C3.1438 17.3373 3.51899 20.1607 4.88949 22.5346L9.34667 19.9403C8.66142 18.7533 8.47383 17.3416 8.82516 16.0158C9.1765 14.69 10.038 13.5586 11.2201 12.8706C12.4022 12.1825 13.8081 11.9941 15.1286 12.3469C16.449 12.6997 17.5758 13.5647 18.261 14.7516L22.7182 12.1573C21.3477 9.78345 19.0941 8.05344 16.4533 7.34789C13.8124 6.64235 11.0006 7.01907 8.63635 8.39517Z" fill="black"/>
<path d="M23.3637 23.6048C25.7279 22.2287 27.4509 19.966 28.1535 17.3143C28.8562 14.6627 28.481 11.8393 27.1105 9.46544L22.6533 12.0597C23.3386 13.2467 23.5262 14.6584 23.1748 15.9842C22.8235 17.31 21.962 18.4414 20.7799 19.1294C19.5978 19.8175 18.1919 20.0059 16.8714 19.6531C15.551 19.3003 14.4242 18.4353 13.739 17.2484L9.2818 19.8427C10.6523 22.2166 12.9059 23.9466 15.5467 24.6521C18.1876 25.3577 20.9994 24.9809 23.3637 23.6048Z" fill="white"/>
</svg>
